/* XPM */
static char * button1_xpm[] = {
"26 13 62 1",
" 	c #000000",
".	c #303030",
"+	c #323232",
"@	c #262626",
"#	c #101010",
"$	c #161616",
"%	c #040404",
"&	c #010101",
"*	c #030303",
"=	c #020202",
"-	c #050505",
";	c #3F3F3F",
">	c #515151",
",	c #555555",
"'	c #525252",
")	c #565656",
"!	c #585858",
"~	c #535353",
"{	c #131313",
"]	c #3D3D3D",
"^	c #505050",
"/	c #545454",
"(	c #383838",
"_	c #141414",
":	c #4D4D4D",
"<	c #4B4B4B",
"[	c #4C4C4C",
"}	c #494949",
"|	c #4E4E4E",
"1	c #3E3E3E",
"2	c #414141",
"3	c #424242",
"4	c #404040",
"5	c #3C3C3C",
"6	c #454545",
"7	c #393939",
"8	c #373737",
"9	c #3B3B3B",
"0	c #3A3A3A",
"a	c #363636",
"b	c #313131",
"c	c #080808",
"d	c #2F2F2F",
"e	c #333333",
"f	c #2D2D2D",
"g	c #070707",
"h	c #1F1F1F",
"i	c #0D0D0D",
"j	c #757575",
"k	c #818181",
"l	c #7C7C7C",
"m	c #7B7B7B",
"n	c #797979",
"o	c #7D7D7D",
"p	c #777777",
"q	c #656565",
"r	c #343434",
"s	c #1C1C1C",
"t	c #090909",
"u	c #171717",
"v	c #202020",
"w	c #0C0C0C",
"                          ",
"   .+@#$%  &*=  =& *# %   ",
"   -& &;>,,,')),,'!~;*    ",
"   = {]>~''~>>~'^~^~/(_   ",
"    = :<:<<::[:>[:^}:|    ",
"      ;12324;;2]211256    ",
"   *& 778(879(8(0]a5]b&   ",
"     =cdbae.++a8b+b8fg&   ",
"    &h*& =  *   -*  =*.   ",
"   & i@(>jklmnolopq~<rs   ",
"    & tuve(7]00905ebvw    ",
"                          ",
"                          "};
