/* XPM */
static char * inacbutton1_xpm[] = {
"26 13 95 2",
"  	c #000000",
". 	c #2B2D22",
"+ 	c #1A1C11",
"@ 	c #17190E",
"# 	c #0E1005",
"$ 	c #080A00",
"% 	c #070900",
"& 	c #090B00",
"* 	c #0A0C01",
"= 	c #15170C",
"- 	c #0C0E03",
"; 	c #060800",
"> 	c #0B0D02",
", 	c #26281D",
"' 	c #313328",
") 	c #33352A",
"! 	c #2F3126",
"~ 	c #303227",
"{ 	c #292B20",
"] 	c #050700",
"^ 	c #151712",
"/ 	c #262922",
"( 	c #31342B",
"_ 	c #32352C",
": 	c #2D3025",
"< 	c #2E3224",
"[ 	c #303426",
"} 	c #2D3123",
"| 	c #2F3325",
"1 	c #313326",
"2 	c #24261B",
"3 	c #14160B",
"4 	c #080903",
"5 	c #32332D",
"6 	c #2C2D25",
"7 	c #2B2C24",
"8 	c #2E3025",
"9 	c #2D2F24",
"0 	c #2E3023",
"a 	c #2D2F22",
"b 	c #2C2E21",
"c 	c #333528",
"d 	c #070800",
"e 	c #2A2B23",
"f 	c #2F3028",
"g 	c #26271F",
"h 	c #282A1F",
"i 	c #27291E",
"j 	c #282A1C",
"k 	c #282A1D",
"l 	c #23251A",
"m 	c #202119",
"n 	c #272820",
"o 	c #272822",
"p 	c #22231D",
"q 	c #25261E",
"r 	c #24251D",
"s 	c #23241C",
"t 	c #252719",
"u 	c #202215",
"v 	c #0A0C00",
"w 	c #1D1F14",
"x 	c #21221A",
"y 	c #22231B",
"z 	c #1F201A",
"A 	c #21221C",
"B 	c #1F2114",
"C 	c #0B0D00",
"D 	c #303225",
"E 	c #050600",
"F 	c #040500",
"G 	c #080901",
"H 	c #090A02",
"I 	c #111308",
"J 	c #35362E",
"K 	c #414338",
"L 	c #616358",
"M 	c #65675C",
"N 	c #6A6C61",
"O 	c #64665B",
"P 	c #67695E",
"Q 	c #66685D",
"R 	c #686A5F",
"S 	c #62635B",
"T 	c #41423A",
"U 	c #20211B",
"V 	c #070700",
"W 	c #1C1C12",
"X 	c #36362C",
"Y 	c #37372D",
"Z 	c #3A3A30",
"` 	c #35352B",
" .	c #33342C",
"..	c #12130D",
"+.	c #090A04",
"                                                    ",
"        . + @ # $ % & & $ % % $ * * % = * -         ",
"        ; > , ' ) ' ! ~ ! ! ' ~ ' ) ) { $ ]         ",
"        ^ / ( _ : < [ < < } } < < | [ 1 2 3         ",
"        4 5 6 7 ) 8 9 0 0 a a a a a a b c ;         ",
"        d e e f g g 6 { { { h i i i , j k &         ",
"        ] 2 l m n o p q q q q r r s s t u %         ",
"        v - w x y z A x x y y y y y x B C >         ",
"        D - $ $ E F G d d G G H H H H % I J         ",
"        2 K L M N O P Q P P P R R R R S T U         ",
"        V W X X Y Z ` ` ` X X X X X X  ...+.        ",
"                                                    ",
"                                                    "};
