/* XPM */
static char * activebutton_xpm[] = {
"12 12 76 1",
" 	c #060606",
".	c #070707",
"+	c #000000",
"@	c #0C0C0C",
"#	c #2E2E2E",
"$	c #545454",
"%	c #535353",
"&	c #2D2D2D",
"*	c #0A0A0A",
"=	c #020202",
"-	c #0E0E0E",
";	c #4C4C4C",
">	c #595959",
",	c #525252",
"'	c #5A5A5A",
")	c #434343",
"!	c #101010",
"~	c #020403",
"{	c #080A09",
"]	c #2B2D2C",
"^	c #4E504F",
"/	c #565857",
"(	c #4F5150",
"_	c #545655",
":	c #505251",
"<	c #2C2C2C",
"[	c #090909",
"}	c #010101",
"|	c #000100",
"1	c #4A4C4B",
"2	c #4C4E4D",
"3	c #4D4F4E",
"4	c #4A4A4A",
"5	c #090B0A",
"6	c #3C3E3D",
"7	c #4B4D4C",
"8	c #464847",
"9	c #474948",
"0	c #494B4A",
"a	c #3B3B3B",
"b	c #0B0B0B",
"c	c #222222",
"d	c #282A29",
"e	c #3E403F",
"f	c #434544",
"g	c #404241",
"h	c #272727",
"i	c #212121",
"j	c #484848",
"k	c #3B3D3C",
"l	c #3D3F3E",
"m	c #3F4140",
"n	c #464646",
"o	c #393939",
"p	c #1E201F",
"q	c #343635",
"r	c #333534",
"s	c #202221",
"t	c #0B0D0C",
"u	c #383838",
"v	c #030303",
"w	c #181818",
"x	c #212322",
"y	c #575958",
"z	c #373737",
"A	c #161616",
"B	c #040404",
"C	c #202020",
"D	c #505050",
"E	c #727272",
"F	c #7B7B7B",
"G	c #7A7C7B",
"H	c #717372",
"I	c #1C1C1C",
"J	c #3C3C3C",
"K	c #050505",
" .+@#$%&*+=+",
"=+-;>,%')!+=",
"~{]^/((_:<[}",
"||123(:2^4++",
"+56789087ab+",
"+cdefggfehi+",
"}j@kel6m6bn+",
"+o)@pqrst)u+",
"vwo'i}|xyzAB",
"++CDEFGH0I++",
"+++wzJJu@}}+",
"+}++B++K++++"};
