/* XPM */
static char * inactivebutton_xpm[] = {
"12 12 48 1",
" 	c #000000",
".	c #030303",
"+	c #050505",
"@	c #1A1A1A",
"#	c #272727",
"$	c #222222",
"%	c #181818",
"&	c #070707",
"*	c #0A0A0A",
"=	c #232323",
"-	c #292929",
";	c #242424",
">	c #282828",
",	c #1E1E1E",
"'	c #080808",
")	c #141414",
"!	c #252525",
"~	c #262626",
"{	c #131313",
"]	c #040404",
"^	c #1F1F1F",
"/	c #212121",
"(	c #010101",
"_	c #1D1D1D",
":	c #202020",
"<	c #191919",
"[	c #161616",
"}	c #1B1B1B",
"|	c #151515",
"1	c #121212",
"2	c #1C1C1C",
"3	c #2C2C2C",
"4	c #0D0D0D",
"5	c #171717",
"6	c #111111",
"7	c #060606",
"8	c #2A2A2A",
"9	c #393939",
"0	c #020202",
"a	c #3C3C3C",
"b	c #3A3A3A",
"c	c #565656",
"d	c #5D5D5D",
"e	c #5E5E5E",
"f	c #545454",
"g	c #101010",
"h	c #2E2E2E",
"i	c #0C0C0C",
"            ",
" . +@#$%&   ",
"  *=-;>-,*  ",
" ')!~~;!!{] ",
"  ^~/=!;;;  ",
" (__$/^^:<. ",
" )[}:}/^:|1 ",
" #+/2}2%^]3 ",
" !-&45[67~8 ",
" 1-9{0 {a8{ ",
"  %bcdefbg  ",
"   1--h>i   "};
